<svg width="20" height="20" viewBox="0 0 20 20" fill="none" xmlns="http://www.w3.org/2000/svg">
<path d="M15.0892 14.1443C15.0892 14.2268 15.0492 14.3196 14.989 14.3814L14.488 14.8969C14.4279 14.9588 14.3377 15 14.2576 15C14.1774 15 14.0872 14.9588 14.0271 14.8969L10.0892 10.8454L6.15136 14.8969C6.09124 14.9588 6.00106 15 5.9209 15C5.83072 15 5.75056 14.9588 5.69044 14.8969L5.18943 14.3814C5.12931 14.3196 5.08923 14.2268 5.08923 14.1443C5.08923 14.0619 5.12931 13.9691 5.18943 13.9072L9.85877 9.10309C9.91889 9.04124 10.0091 9 10.0892 9C10.1694 9 10.2596 9.04124 10.3197 9.10309L14.989 13.9072C15.0492 13.9691 15.0892 14.0619 15.0892 14.1443Z" fill="#3E9CDC"/>
<path d="M5 5.85567C5 5.7732 5.04008 5.68041 5.1002 5.61856L5.6012 5.10309C5.66132 5.04124 5.7515 5 5.83166 5C5.91182 5 6.002 5.04124 6.06213 5.10309L10 9.15464L13.9379 5.10309C13.998 5.04124 14.0882 5 14.1683 5C14.2585 5 14.3387 5.04124 14.3988 5.10309L14.8998 5.61856C14.9599 5.68041 15 5.7732 15 5.85567C15 5.93814 14.9599 6.03093 14.8998 6.09278L10.2305 10.8969C10.1703 10.9588 10.0802 11 10 11C9.91984 11 9.82966 10.9588 9.76954 10.8969L5.1002 6.09278C5.04008 6.03093 5 5.93815 5 5.85567Z" fill="#3E9CDC"/>
</svg>
